<svg width="0" height="0" class="hidden">
  <symbol fill="none" xmlns="http://www.w3.org/2000/svg" viewBox="0 0 18 12" id="burger">
    <path d="M0 12H18V10H0V12ZM0 7H18V5H0V7ZM0 0V2H18V0H0Z" fill="#F2F2F2"></path>
  </symbol>
  <symbol fill="none" xmlns="http://www.w3.org/2000/svg" viewBox="0 0 18 18" id="radio">
    <path d="M9 0.5C4.308 0.5 0.5 4.308 0.5 9C0.5 13.692 4.308 17.5 9 17.5C13.692 17.5 17.5 13.692 17.5 9C17.5 4.308 13.692 0.5 9 0.5ZM9 15.8C5.243 15.8 2.2 12.757 2.2 9C2.2 5.243 5.243 2.2 9 2.2C12.757 2.2 15.8 5.243 15.8 9C15.8 12.757 12.757 15.8 9 15.8Z" fill="white" fill-opacity="0.3"></path>
    <path d="M8.99815 12.7092C11.0466 12.7092 12.7072 11.0486 12.7072 9.00011C12.7072 6.95163 11.0466 5.29102 8.99815 5.29102C6.94968 5.29102 5.28906 6.95163 5.28906 9.00011C5.28906 11.0486 6.94968 12.7092 8.99815 12.7092Z" fill="white"></path>
  </symbol>
  <symbol fill="none" xmlns="http://www.w3.org/2000/svg" viewBox="0 0 40 40" id="ring-notif">
    <g clip-path="url(#clip0_1_265)">
      <path d="M19.9974 29.168C21.0057 29.168 21.8307 28.343 21.8307 27.3346H18.1641C18.1641 28.343 18.9891 29.168 19.9974 29.168ZM25.4974 23.668V19.0846C25.4974 16.2705 24.0032 13.9146 21.3724 13.2913V12.668C21.3724 11.9071 20.7582 11.293 19.9974 11.293C19.2366 11.293 18.6224 11.9071 18.6224 12.668V13.2913C16.0007 13.9146 14.4974 16.2613 14.4974 19.0846V23.668L12.6641 25.5013V26.418H27.3307V25.5013L25.4974 23.668ZM23.6641 24.5846H16.3307V19.0846C16.3307 16.8113 17.7149 14.9596 19.9974 14.9596C22.2799 14.9596 23.6641 16.8113 23.6641 19.0846V24.5846Z" fill="white"></path>
    </g>
    <circle cx="27" cy="12" r="8" fill="#FF4122" stroke="black" stroke-width="2"></circle>
    <path d="M29.5 14.2305V15.5H24.5391V14.4258L26.8242 12.0234C27.026 11.7923 27.1888 11.5856 27.3125 11.4033C27.4362 11.2178 27.5257 11.0501 27.5811 10.9004C27.6396 10.7507 27.6689 10.6156 27.6689 10.4951C27.6689 10.29 27.638 10.1191 27.5762 9.98242C27.5176 9.84245 27.4297 9.73665 27.3125 9.66504C27.1986 9.59342 27.057 9.55762 26.8877 9.55762C26.7184 9.55762 26.5703 9.60645 26.4434 9.7041C26.3164 9.80176 26.2171 9.93522 26.1455 10.1045C26.0771 10.2738 26.043 10.4642 26.043 10.6758H24.3926C24.3926 10.2396 24.4984 9.84082 24.71 9.47949C24.9248 9.11816 25.2227 8.83008 25.6035 8.61523C25.9844 8.39714 26.4255 8.28809 26.9268 8.28809C27.4508 8.28809 27.8903 8.36947 28.2451 8.53223C28.5999 8.69499 28.8669 8.93099 29.0459 9.24023C29.2282 9.54622 29.3193 9.91569 29.3193 10.3486C29.3193 10.596 29.2803 10.8337 29.2021 11.0615C29.124 11.2894 29.0117 11.5156 28.8652 11.7402C28.7188 11.9616 28.5397 12.1895 28.3281 12.4238C28.1198 12.6582 27.8822 12.9072 27.6152 13.1709L26.6973 14.2305H29.5Z" fill="white"></path>
    <defs>
      <clipPath id="clip0_1_265">
        <rect width="22" height="22" fill="white" transform="translate(9 9)"></rect>
      </clipPath>
    </defs>
  </symbol>
  <symbol fill="none" xmlns="http://www.w3.org/2000/svg" viewBox="0 0 16 19" id="ring">
    <path d="M8.00521 18.168C9.01354 18.168 9.83854 17.343 9.83854 16.3346H6.17188C6.17188 17.343 6.99687 18.168 8.00521 18.168ZM13.5052 12.668V8.08464C13.5052 5.27047 12.011 2.91464 9.38021 2.2913V1.66797C9.38021 0.907135 8.76604 0.292969 8.00521 0.292969C7.24437 0.292969 6.63021 0.907135 6.63021 1.66797V2.2913C4.00854 2.91464 2.50521 5.2613 2.50521 8.08464V12.668L0.671875 14.5013V15.418H15.3385V14.5013L13.5052 12.668ZM11.6719 13.5846H4.33854V8.08464C4.33854 5.8113 5.72271 3.95964 8.00521 3.95964C10.2877 3.95964 11.6719 5.8113 11.6719 8.08464V13.5846Z" fill="white"></path>
  </symbol>
  <symbol fill="none" xmlns="http://www.w3.org/2000/svg" viewBox="0 0 40 40" id="star-dot">
    <path d="M28.4136 16.744L23.0896 16.282L21.0106 11.387C20.6366 10.496 19.3606 10.496 18.9866 11.387L16.9076 16.293L11.5946 16.744C10.6266 16.821 10.2306 18.031 10.9676 18.669L15.0046 22.167L13.7946 27.359C13.5746 28.305 14.5976 29.053 15.4336 28.547L19.9986 25.797L24.5636 28.558C25.3996 29.064 26.4226 28.316 26.2026 27.37L24.9926 22.167L29.0296 18.669C29.7666 18.031 29.3816 16.821 28.4136 16.744ZM19.9986 23.74L15.8626 26.237L16.9626 21.529L13.3106 18.361L18.1286 17.943L19.9986 13.51L21.8796 17.954L26.6976 18.372L23.0456 21.54L24.1456 26.248L19.9986 23.74Z" fill="white"></path>
    <circle cx="30" cy="9" r="3" fill="#FADB00"></circle>
  </symbol>
  <symbol fill="none" xmlns="http://www.w3.org/2000/svg" viewBox="0 0 20 19" id="star">
    <path d="M18.4136 6.744L13.0896 6.282L11.0106 1.387C10.6366 0.496 9.36059 0.496 8.98659 1.387L6.90759 6.293L1.59459 6.744C0.626591 6.821 0.230591 8.031 0.967591 8.669L5.00459 12.167L3.79459 17.359C3.57459 18.305 4.59759 19.053 5.43359 18.547L9.99859 15.797L14.5636 18.558C15.3996 19.064 16.4226 18.316 16.2026 17.37L14.9926 12.167L19.0296 8.669C19.7666 8.031 19.3816 6.821 18.4136 6.744ZM9.99859 13.74L5.86259 16.237L6.96259 11.529L3.31059 8.361L8.12859 7.943L9.99859 3.51L11.8796 7.954L16.6976 8.372L13.0456 11.54L14.1456 16.248L9.99859 13.74Z" fill="white"></path>
  </symbol>
  <symbol fill="none" xmlns="http://www.w3.org/2000/svg" viewBox="0 0 20 20" id="search">
    <path d="M19.3065 17.8886L14.5734 13.1359C15.7904 11.7392 16.4571 9.98185 16.4571 8.15238C16.4571 3.878 12.8551 0.400391 8.42779 0.400391C4.00047 0.400391 0.398438 3.878 0.398438 8.15238C0.398438 12.4268 4.00047 15.9044 8.42779 15.9044C10.0899 15.9044 11.6737 15.4204 13.0279 14.5016L17.797 19.2903C17.9963 19.4902 18.2644 19.6004 18.5518 19.6004C18.8237 19.6004 19.0817 19.5003 19.2775 19.3183C19.6937 18.9317 19.7069 18.2906 19.3065 17.8886ZM8.42779 2.42265C11.7003 2.42265 14.3625 4.99294 14.3625 8.15238C14.3625 11.3118 11.7003 13.8821 8.42779 13.8821C5.15531 13.8821 2.49305 11.3118 2.49305 8.15238C2.49305 4.99294 5.15531 2.42265 8.42779 2.42265Z" fill="white"></path>
  </symbol>
  <symbol fill="none" xmlns="http://www.w3.org/2000/svg" viewBox="0 0 6 8" id="nav-arrow">
    <path d="M5.0847 3.71446L1.48714 0.118095C1.32928 -0.039365 1.07353 -0.039365 0.915269 0.118095C0.75741 0.275555 0.75741 0.531311 0.915269 0.688771L4.22747 3.99978L0.915668 7.3108C0.757809 7.46826 0.757809 7.72401 0.915668 7.88187C1.07353 8.03933 1.32968 8.03933 1.48754 7.88187L5.0851 4.2855C5.24057 4.12967 5.24057 3.8699 5.0847 3.71446Z" fill="black" fill-opacity="0.38"></path>
  </symbol>
  <symbol fill="none" xmlns="http://www.w3.org/2000/svg" viewBox="0 0 16 16" id="ball">
    <path d="M15.6029 5.52903C14.5062 2.14839 11.3708 0 8.00312 0C2.61938 0 -1.2902 5.27097 0.396851 10.471C1.4936 13.8516 4.63546 16 7.99989 16C13.3836 16 17.29 10.729 15.6029 5.52903ZM14.2159 11.1323L11.174 11.5065L10.5998 10.7032L11.6869 7.34516L12.6191 7.05484L14.8642 9.15161C14.7481 9.83226 14.532 10.5 14.2159 11.1323ZM1.14845 9.14516L3.3871 7.05161L4.31933 7.34194L5.41286 10.6871L4.829 11.5L1.79036 11.1258C1.37102 10.2871 1.23554 9.66774 1.14845 9.14516ZM7.487 3.31613V4.37742L4.7161 6.3871L3.7 6.07097L3.11936 3.04194C3.6129 2.55484 4.1774 2.14516 4.79674 1.82258L7.487 3.31613ZM12.3062 6.07097L11.2901 6.3871L8.51923 4.37742V3.31613L11.2159 1.81935C11.8321 2.14194 12.3998 2.55161 12.8933 3.04194L12.3062 6.07097ZM5.35802 7.2L8.00312 5.28064L10.6514 7.20323L9.64824 10.3H6.3709L5.35802 7.2ZM14.961 7.82903L13.3127 6.29032L13.7417 4.0871C14.8546 5.72581 14.9449 7.22258 14.961 7.82903ZM9.97404 1.32903L8.00312 2.42258L6.03542 1.33226C8.34182 0.648387 9.97081 1.32903 9.97404 1.32903ZM2.26777 4.06774L2.69357 6.29032L1.04522 7.82258C1.07103 6.79677 1.32586 5.77742 1.80649 4.83548C1.94197 4.56774 2.10003 4.3129 2.26777 4.06774ZM2.5097 12.2613L4.72578 12.5323L5.66769 14.5548C4.41611 14.1097 3.32259 13.3129 2.5097 12.2613ZM6.95798 14.8839L5.66446 12.1097L6.22574 11.329H9.78049L10.3385 12.1097L9.04502 14.8839C8.31279 14.9968 7.67732 14.9935 6.95798 14.8839ZM10.3385 14.5548L11.2805 12.5323L13.5062 12.2581C12.6998 13.3097 11.6095 14.1 10.3385 14.5548Z" fill="black" fill-opacity="0.38"></path>
  </symbol>
</svg>