<svg xmlns="http://www.w3.org/2000/svg" aria-hidden="true" style="position:absolute;width:0;height:0;overflow:hidden"><defs><symbol id="burger" viewBox="0 0 18 12"><path fill="#F2F2F2" d="M0 12h18v-2H0v2Zm0-5h18V5H0v2Zm0-7v2h18V0H0Z"/></symbol><symbol id="radio" viewBox="0 0 18 18"><path fill="#fff" fill-opacity="0.3" d="M9 .5A8.503 8.503 0 0 0 .5 9c0 4.692 3.808 8.5 8.5 8.5s8.5-3.808 8.5-8.5S13.692.5 9 .5Zm0 15.3A6.798 6.798 0 0 1 2.2 9c0-3.757 3.043-6.8 6.8-6.8 3.757 0 6.8 3.043 6.8 6.8 0 3.757-3.043 6.8-6.8 6.8Z"/><path fill="#fff" d="M8.998 12.71a3.71 3.71 0 1 0 0-7.419 3.71 3.71 0 0 0 0 7.418Z"/></symbol><symbol id="ring-notif" viewBox="0 0 40 40"><g clip-path="url(#clip0_1_265)"><path fill="#fff" d="M19.997 29.168a1.839 1.839 0 0 0 1.834-1.833h-3.667c0 1.008.825 1.833 1.833 1.833Zm5.5-5.5v-4.583c0-2.815-1.494-5.17-4.125-5.794v-.623c0-.76-.614-1.375-1.375-1.375-.76 0-1.375.614-1.375 1.375v.623c-2.621.624-4.125 2.97-4.125 5.794v4.583l-1.833 1.833v.917h14.667v-.917l-1.834-1.833Zm-1.833.917h-7.333v-5.5c0-2.274 1.384-4.125 3.666-4.125 2.283 0 3.667 1.851 3.667 4.125v5.5Z"/></g><circle cx="27" cy="12" r="8" fill="#FF4122" stroke="#000" stroke-width="2"/><path fill="#fff" d="M29.5 14.23v1.27h-4.96v-1.074l2.284-2.403c.202-.23.365-.437.488-.62.124-.185.214-.353.27-.503.058-.15.087-.284.087-.405 0-.205-.031-.376-.093-.513a.656.656 0 0 0-.264-.317.784.784 0 0 0-.424-.107.708.708 0 0 0-.445.146.967.967 0 0 0-.298.4c-.068.17-.102.36-.102.572h-1.65c0-.436.105-.835.317-1.197.215-.36.513-.649.893-.864.381-.218.822-.327 1.324-.327.524 0 .963.081 1.318.244.355.163.622.399.8.708.183.306.274.676.274 1.109 0 .247-.039.485-.117.713a3.06 3.06 0 0 1-.337.678c-.146.222-.325.45-.537.684-.208.234-.446.483-.713.747l-.918 1.06H29.5Z"/><defs><clipPath id="clip0_1_265"><path fill="#fff" d="M9 9h22v22H9z"/></clipPath></defs></symbol><symbol id="ring" viewBox="0 0 16 19"><path fill="#fff" d="M8.005 18.168a1.839 1.839 0 0 0 1.834-1.833H6.172c0 1.008.825 1.833 1.833 1.833Zm5.5-5.5V8.085c0-2.815-1.494-5.17-4.125-5.794v-.623c0-.76-.614-1.375-1.375-1.375-.76 0-1.375.614-1.375 1.375v.623c-2.621.624-4.125 2.97-4.125 5.794v4.583L.672 14.501v.917h14.666v-.917l-1.833-1.833Zm-1.833.917H4.339v-5.5c0-2.274 1.384-4.125 3.666-4.125 2.283 0 3.667 1.851 3.667 4.125v5.5Z"/></symbol><symbol id="star-dot" viewBox="0 0 40 40"><path fill="#fff" d="m28.414 16.744-5.324-.462-2.08-4.895c-.373-.891-1.65-.891-2.023 0l-2.08 4.906-5.312.451c-.968.077-1.364 1.287-.627 1.925l4.037 3.498-1.21 5.192c-.22.946.803 1.694 1.639 1.188l4.565-2.75 4.565 2.761c.836.506 1.859-.242 1.639-1.188l-1.21-5.203 4.037-3.498c.737-.638.352-1.848-.616-1.925Zm-8.415 6.996-4.136 2.497 1.1-4.708-3.652-3.168 4.818-.418 1.87-4.433 1.88 4.444 4.819.418-3.652 3.168 1.1 4.708-4.147-2.508Z"/><circle cx="30" cy="9" r="3" fill="#FADB00"/></symbol><symbol id="star" viewBox="0 0 20 19"><path fill="#fff" d="m18.414 6.744-5.324-.462-2.08-4.895c-.373-.891-1.65-.891-2.023 0l-2.08 4.906-5.312.451C.627 6.821.23 8.031.968 8.669l4.037 3.498-1.21 5.192c-.22.946.803 1.694 1.639 1.188l4.565-2.75 4.565 2.761c.836.506 1.859-.242 1.639-1.188l-1.21-5.203 4.037-3.498c.737-.638.352-1.848-.616-1.925ZM9.999 13.74l-4.136 2.497 1.1-4.708L3.31 8.361l4.818-.418 1.87-4.433 1.88 4.444 4.819.418-3.652 3.168 1.1 4.708-4.147-2.508Z"/></symbol><symbol id="search" viewBox="0 0 20 20"><path fill="#fff" d="m19.306 17.889-4.733-4.753a7.568 7.568 0 0 0 1.884-4.984C16.457 3.878 12.855.4 8.427.4 4 .4.399 3.878.399 8.152c0 4.275 3.602 7.752 8.03 7.752a8.14 8.14 0 0 0 4.6-1.402l4.769 4.788c.2.2.467.31.755.31.272 0 .53-.1.726-.282a.988.988 0 0 0 .029-1.43ZM8.428 2.423c3.272 0 5.934 2.57 5.934 5.73 0 3.159-2.662 5.73-5.934 5.73-3.273 0-5.935-2.571-5.935-5.73 0-3.16 2.662-5.73 5.935-5.73Z"/></symbol><symbol id="nav-arrow" viewBox="0 0 6 8"><path fill-opacity="0.38" d="M5.085 3.714 1.487.118a.403.403 0 1 0-.572.57L4.227 4 .916 7.31a.404.404 0 1 0 .572.572l3.597-3.596a.407.407 0 0 0 0-.572Z"/></symbol><symbol id="ball" viewBox="0 0 16 16"><path fill-opacity="0.38" d="M15.603 5.529A7.997 7.997 0 0 0 8.003 0C2.62 0-1.29 5.271.397 10.471A8.004 8.004 0 0 0 8 16c5.384 0 9.29-5.271 7.603-10.471Zm-1.387 5.603-3.042.375-.574-.804 1.087-3.358.932-.29 2.245 2.097a7.097 7.097 0 0 1-.648 1.98ZM1.148 9.145l2.24-2.093.931.29 1.094 3.345-.584.813-3.039-.374a6.513 6.513 0 0 1-.642-1.98Zm6.339-5.829v1.061l-2.77 2.01L3.7 6.071l-.58-3.03a6.962 6.962 0 0 1 1.677-1.218l2.69 1.493Zm4.82 2.755-1.017.316-2.77-2.01v-1.06l2.696-1.498a6.95 6.95 0 0 1 1.677 1.223l-.587 3.029ZM5.357 7.2l2.645-1.92 2.648 1.923L9.648 10.3H6.371L5.358 7.2Zm9.603.629L13.313 6.29l.429-2.203c1.113 1.639 1.203 3.136 1.219 3.742Zm-4.987-6.5-1.97 1.094-1.969-1.09c2.307-.685 3.936-.004 3.939-.004ZM2.268 4.068l.426 2.222-1.649 1.533a6.95 6.95 0 0 1 .761-2.988c.136-.267.294-.522.462-.767Zm.242 8.193 2.216.271.942 2.023A6.924 6.924 0 0 1 2.51 12.26Zm4.448 2.623L5.664 12.11l.562-.781H9.78l.559.78-1.294 2.775a6.567 6.567 0 0 1-2.087 0Zm3.38-.33.943-2.022 2.225-.274a6.893 6.893 0 0 1-3.168 2.297Z"/></symbol><symbol id="news-arrow" viewBox="0 0 16 16"><path fill-opacity="0.38" d="M7.73.126 7.479.38a.432.432 0 0 0 0 .608l6.375 6.402H.43a.43.43 0 0 0-.43.43v.36c0 .237.192.43.429.43h13.424l-6.375 6.402a.432.432 0 0 0 0 .608l.253.254a.427.427 0 0 0 .606 0l7.537-7.57a.432.432 0 0 0 0-.608L8.337.126a.427.427 0 0 0-.606 0Z"/></symbol><symbol id="lightning" viewBox="0 0 10 14"><path fill="#FFCE00" d="M9.565 5.549a.583.583 0 0 0-.509-.299H5.568L6.165.685A.583.583 0 0 0 5.09.304L.443 7.861a.583.583 0 0 0 .497.89h3.431l-.537 4.57a.583.583 0 0 0 1.077.374L9.553 6.14a.583.583 0 0 0 .012-.59Z"/></symbol><symbol id="message" viewBox="0 0 14 14"><path fill="#fff" fill-opacity="0.54" d="M11.875.5h-9.75C1.229.5.5 1.229.5 2.125v7.313c0 .896.729 1.624 1.625 1.624h2.438v2.133a.304.304 0 0 0 .484.244l3.172-2.377h3.656c.896 0 1.625-.728 1.625-1.624V2.125C13.5 1.229 12.771.5 11.875.5Zm.406 8.938a.407.407 0 0 1-.406.406H7.812l-.325.244-1.706 1.28V9.843H2.125a.407.407 0 0 1-.406-.406V2.125c0-.223.183-.406.406-.406h9.75c.223 0 .406.183.406.406v7.313ZM9.844 3.952H4.156a.407.407 0 0 0-.406.406v.407c0 .223.183.406.406.406h5.688a.407.407 0 0 0 .406-.406v-.407a.407.407 0 0 0-.406-.406ZM7.406 6.391h-3.25a.407.407 0 0 0-.406.406v.406c0 .224.183.406.406.406h3.25a.407.407 0 0 0 .407-.406v-.406a.407.407 0 0 0-.407-.406Z"/></symbol><symbol id="video-camera" viewBox="0 0 13 10"><path fill-opacity="0.54" d="M7.588.65h-6.51A1.08 1.08 0 0 0 0 1.729v6.509c0 .596.483 1.079 1.079 1.079h6.509a1.08 1.08 0 0 0 1.079-1.08V1.73A1.08 1.08 0 0 0 7.587.65Zm4.275.85L9.389 3.208V6.76l2.474 1.704c.478.33 1.137-.006 1.137-.582V2.083c0-.573-.657-.912-1.137-.582Z"/></symbol><symbol id="video-camera-stroke" viewBox="0 0 18 12"><path fill="#fff" d="M17 1a1 1 0 0 0-.569.178l-3.429 2.185V1.494C13.002.669 12.277 0 11.383 0H1.62C.725 0 0 .669 0 1.494v9.014c0 .825.725 1.494 1.619 1.494h9.764c.894 0 1.62-.669 1.62-1.494V8.64l3.425 2.185a.984.984 0 0 0 .569.178c.518 0 1.003-.406 1.003-.985V1.985c.003-.579-.481-.985-1-.985Zm-4.998 9.508c0 .269-.284.494-.619.494H1.62c-.334 0-.619-.225-.619-.494V1.494C1 1.225 1.285 1 1.62 1h9.764c.335 0 .62.225.62.494v9.014Zm5-.49-.037-.041-3.963-2.526V4.548l4-2.548v8.017Z"/></symbol><symbol id="draw" viewBox="0 0 6 6"><path fill="#fff" fill-rule="evenodd" d="M0 .5h6v2H0v-2ZM0 4h6v2H0V4Z" clip-rule="evenodd"/></symbol><symbol id="lose" viewBox="0 0 8 8"><path fill="#fff" fill-rule="evenodd" d="M6.266 7.394 4.003 5.13 1.741 7.394.609 6.262 2.872 4 .61 1.737 1.741.605l2.262 2.263L6.266.605l1.132 1.132L5.135 4l2.263 2.262-1.132 1.132Z" clip-rule="evenodd"/></symbol><symbol id="win" viewBox="0 0 10 8"><path fill="#fff" d="m3.403 5.76-2.08-2.08L.203 4.8l3.2 3.2 6.4-6.4L8.683.48l-5.28 5.28Z"/></symbol></defs></svg>